<svg id="10015.io" viewBox="0 0 1920 900" width="1220" height="900" xmlns="http://www.w3.org/2000/svg" xmlns:xlink="http://www.w3.org/1999/xlink">
  <path fill="#474bff" d="M1736,617.5Q1716,695,1648,750.5Q1580,806,1509.5,875Q1439,944,1274,950Q1109,956,968.5,922.5Q828,889,698,854Q568,819,427,786Q286,753,261,679.5Q236,606,170.5,546.5Q105,487,100,402.5Q95,318,196,258Q297,198,429,169Q561,140,682.5,79.5Q804,19,946.5,54.5Q1089,90,1258.5,64.5Q1428,39,1509.5,156Q1591,273,1642,355.5Q1693,438,1726.5,520Q1760,602,1736,617.5Z"/>
</svg>